<mxfile host="Electron" modified="2023-05-01T21:47:28.976Z" agent="Mozilla/5.0 (Windows NT 10.0; Win64; x64) AppleWebKit/537.36 (KHTML, like Gecko) draw.io/21.2.1 Chrome/112.0.5615.87 Electron/24.1.2 Safari/537.36" etag="F3JHq_H4xQiVZ7RUoT-K" version="21.2.1" type="device">
  <diagram name="Page-1" id="nmuw-67hnv0CNZxBrXKA">
    <mxGraphModel dx="1371" dy="1713" grid="1" gridSize="10" guides="1" tooltips="1" connect="1" arrows="1" fold="1" page="1" pageScale="1" pageWidth="850" pageHeight="1100" math="0" shadow="0">
      <root>
        <mxCell id="0" />
        <mxCell id="1" parent="0" />
        <mxCell id="Bd9IcJq--WjUhIXh83RM-1" value="φαρμακοποιός" style="shape=umlActor;verticalLabelPosition=bottom;verticalAlign=top;html=1;" parent="1" vertex="1">
          <mxGeometry x="20" y="140" width="30" height="60" as="geometry" />
        </mxCell>
        <mxCell id="RyjtperPYyfWlRauyCAq-8" style="edgeStyle=orthogonalEdgeStyle;rounded=0;orthogonalLoop=1;jettySize=auto;html=1;" parent="1" source="Bd9IcJq--WjUhIXh83RM-10" target="Bd9IcJq--WjUhIXh83RM-13" edge="1">
          <mxGeometry relative="1" as="geometry" />
        </mxCell>
        <mxCell id="Bd9IcJq--WjUhIXh83RM-10" value="αρχική οθόνη" style="shape=umlBoundary;whiteSpace=wrap;html=1;" parent="1" vertex="1">
          <mxGeometry x="290" y="130" width="100" height="80" as="geometry" />
        </mxCell>
        <mxCell id="Bd9IcJq--WjUhIXh83RM-13" value="εμφάνισε" style="ellipse;shape=umlControl;whiteSpace=wrap;html=1;" parent="1" vertex="1">
          <mxGeometry x="530" y="130" width="70" height="80" as="geometry" />
        </mxCell>
        <mxCell id="RyjtperPYyfWlRauyCAq-10" style="edgeStyle=orthogonalEdgeStyle;rounded=0;orthogonalLoop=1;jettySize=auto;html=1;entryX=0.009;entryY=0.541;entryDx=0;entryDy=0;entryPerimeter=0;fillColor=#f8cecc;strokeColor=#b85450;" parent="1" source="Bd9IcJq--WjUhIXh83RM-15" target="Bd9IcJq--WjUhIXh83RM-46" edge="1">
          <mxGeometry relative="1" as="geometry" />
        </mxCell>
        <mxCell id="Bd9IcJq--WjUhIXh83RM-15" value="in stock ή out of stock" style="shape=umlBoundary;whiteSpace=wrap;html=1;" parent="1" vertex="1">
          <mxGeometry x="280" y="288" width="100" height="80" as="geometry" />
        </mxCell>
        <mxCell id="Bd9IcJq--WjUhIXh83RM-16" value="" style="endArrow=classic;html=1;rounded=0;exitX=0.171;exitY=0.938;exitDx=0;exitDy=0;exitPerimeter=0;entryX=0.9;entryY=0.188;entryDx=0;entryDy=0;entryPerimeter=0;" parent="1" source="Bd9IcJq--WjUhIXh83RM-13" target="Bd9IcJq--WjUhIXh83RM-15" edge="1">
          <mxGeometry width="50" height="50" relative="1" as="geometry">
            <mxPoint x="230" y="400" as="sourcePoint" />
            <mxPoint x="280" y="350" as="targetPoint" />
          </mxGeometry>
        </mxCell>
        <mxCell id="Bd9IcJq--WjUhIXh83RM-18" value="out&lt;span style=&quot;font-size:12.0pt;line-height:107%;font-family:&lt;br/&gt;&amp;quot;Arial&amp;quot;,sans-serif;mso-fareast-font-family:Calibri;mso-fareast-theme-font:minor-latin;&lt;br/&gt;mso-ansi-language:EL;mso-fareast-language:EN-US;mso-bidi-language:AR-SA&quot;&gt; &lt;/span&gt;&lt;span style=&quot;font-size:12.0pt;line-height:107%;font-family:&amp;quot;Arial&amp;quot;,sans-serif;&lt;br/&gt;mso-fareast-font-family:Calibri;mso-fareast-theme-font:minor-latin;mso-ansi-language:&lt;br/&gt;EN-US;mso-fareast-language:EN-US;mso-bidi-language:AR-SA&quot;&gt;of&lt;/span&gt;&lt;span style=&quot;font-size:12.0pt;line-height:107%;font-family:&amp;quot;Arial&amp;quot;,sans-serif;&lt;br/&gt;mso-fareast-font-family:Calibri;mso-fareast-theme-font:minor-latin;mso-ansi-language:&lt;br/&gt;EL;mso-fareast-language:EN-US;mso-bidi-language:AR-SA&quot;&gt; &lt;/span&gt;&lt;span style=&quot;font-size:12.0pt;line-height:107%;font-family:&amp;quot;Arial&amp;quot;,sans-serif;&lt;br/&gt;mso-fareast-font-family:Calibri;mso-fareast-theme-font:minor-latin;mso-ansi-language:&lt;br/&gt;EN-US;mso-fareast-language:EN-US;mso-bidi-language:AR-SA&quot;&gt;stock&lt;/span&gt;" style="text;html=1;align=center;verticalAlign=middle;resizable=0;points=[];autosize=1;strokeColor=none;fillColor=none;rotation=15;" parent="1" vertex="1">
          <mxGeometry x="390" y="340" width="80" height="30" as="geometry" />
        </mxCell>
        <mxCell id="Bd9IcJq--WjUhIXh83RM-19" value="ενφάνισε" style="ellipse;shape=umlControl;whiteSpace=wrap;html=1;" parent="1" vertex="1">
          <mxGeometry x="490" y="490" width="70" height="80" as="geometry" />
        </mxCell>
        <mxCell id="Bd9IcJq--WjUhIXh83RM-20" value="" style="endArrow=classic;html=1;rounded=0;exitX=1;exitY=0.488;exitDx=0;exitDy=0;exitPerimeter=0;entryX=0.016;entryY=0.489;entryDx=0;entryDy=0;entryPerimeter=0;" parent="1" source="Bd9IcJq--WjUhIXh83RM-15" target="T-DcWj7JUtL2jdLP51T1-19" edge="1">
          <mxGeometry width="50" height="50" relative="1" as="geometry">
            <mxPoint x="360" y="400" as="sourcePoint" />
            <mxPoint x="410" y="350" as="targetPoint" />
          </mxGeometry>
        </mxCell>
        <mxCell id="Bd9IcJq--WjUhIXh83RM-22" value="out of stock προϊόντα" style="shape=umlBoundary;whiteSpace=wrap;html=1;" parent="1" vertex="1">
          <mxGeometry x="330" y="550" width="100" height="80" as="geometry" />
        </mxCell>
        <mxCell id="Bd9IcJq--WjUhIXh83RM-23" value="" style="endArrow=classic;html=1;rounded=0;exitX=0.071;exitY=0.75;exitDx=0;exitDy=0;exitPerimeter=0;entryX=0.91;entryY=0.213;entryDx=0;entryDy=0;entryPerimeter=0;" parent="1" source="Bd9IcJq--WjUhIXh83RM-19" target="Bd9IcJq--WjUhIXh83RM-22" edge="1">
          <mxGeometry width="50" height="50" relative="1" as="geometry">
            <mxPoint x="320" y="400" as="sourcePoint" />
            <mxPoint x="370" y="350" as="targetPoint" />
          </mxGeometry>
        </mxCell>
        <mxCell id="Bd9IcJq--WjUhIXh83RM-25" value="Επιλογή Κατηγορίας" style="text;html=1;align=center;verticalAlign=middle;resizable=0;points=[];autosize=1;strokeColor=none;fillColor=none;rotation=40;" parent="1" vertex="1">
          <mxGeometry x="150" y="300" width="130" height="30" as="geometry" />
        </mxCell>
        <mxCell id="RyjtperPYyfWlRauyCAq-25" style="edgeStyle=orthogonalEdgeStyle;rounded=0;orthogonalLoop=1;jettySize=auto;html=1;" parent="1" source="Bd9IcJq--WjUhIXh83RM-27" target="Bd9IcJq--WjUhIXh83RM-28" edge="1">
          <mxGeometry relative="1" as="geometry" />
        </mxCell>
        <mxCell id="Bd9IcJq--WjUhIXh83RM-27" value="υπολόγισε πόσοι premium ενδιαφέρονται" style="ellipse;shape=umlControl;whiteSpace=wrap;html=1;" parent="1" vertex="1">
          <mxGeometry x="570" y="620" width="90" height="90" as="geometry" />
        </mxCell>
        <mxCell id="Bd9IcJq--WjUhIXh83RM-28" value="εμφάνισε επιλογές" style="ellipse;shape=umlControl;whiteSpace=wrap;html=1;" parent="1" vertex="1">
          <mxGeometry x="825" y="650" width="100" height="85" as="geometry" />
        </mxCell>
        <mxCell id="RyjtperPYyfWlRauyCAq-27" style="edgeStyle=orthogonalEdgeStyle;rounded=0;orthogonalLoop=1;jettySize=auto;html=1;entryX=0.554;entryY=0.115;entryDx=0;entryDy=0;entryPerimeter=0;" parent="1" source="Bd9IcJq--WjUhIXh83RM-31" target="Bd9IcJq--WjUhIXh83RM-37" edge="1">
          <mxGeometry relative="1" as="geometry">
            <Array as="points">
              <mxPoint x="360" y="831" />
              <mxPoint x="234" y="831" />
            </Array>
          </mxGeometry>
        </mxCell>
        <mxCell id="Bd9IcJq--WjUhIXh83RM-31" value="αριθός premium, προσθήκη εναλλακτικού προϊόντος,αύξηση stock" style="shape=umlBoundary;whiteSpace=wrap;html=1;" parent="1" vertex="1">
          <mxGeometry x="297.5" y="680" width="135" height="110" as="geometry" />
        </mxCell>
        <mxCell id="Bd9IcJq--WjUhIXh83RM-32" value="" style="endArrow=classic;html=1;rounded=0;exitX=0.214;exitY=0.95;exitDx=0;exitDy=0;exitPerimeter=0;entryX=1.02;entryY=0.35;entryDx=0;entryDy=0;entryPerimeter=0;" parent="1" source="Bd9IcJq--WjUhIXh83RM-28" target="Bd9IcJq--WjUhIXh83RM-31" edge="1">
          <mxGeometry width="50" height="50" relative="1" as="geometry">
            <mxPoint x="430" y="560" as="sourcePoint" />
            <mxPoint x="480" y="510" as="targetPoint" />
          </mxGeometry>
        </mxCell>
        <mxCell id="Bd9IcJq--WjUhIXh83RM-35" value="αύξηση stock&amp;nbsp;" style="text;html=1;align=center;verticalAlign=middle;resizable=0;points=[];autosize=1;strokeColor=none;fillColor=none;" parent="1" vertex="1">
          <mxGeometry x="240" y="800" width="100" height="30" as="geometry" />
        </mxCell>
        <mxCell id="Bd9IcJq--WjUhIXh83RM-37" value="αύξηση stock" style="ellipse;shape=umlControl;whiteSpace=wrap;html=1;" parent="1" vertex="1">
          <mxGeometry x="195" y="870" width="70" height="80" as="geometry" />
        </mxCell>
        <mxCell id="Bd9IcJq--WjUhIXh83RM-39" value="προϊόντα" style="ellipse;shape=umlEntity;whiteSpace=wrap;html=1;" parent="1" vertex="1">
          <mxGeometry x="185" y="1010" width="80" height="80" as="geometry" />
        </mxCell>
        <mxCell id="Bd9IcJq--WjUhIXh83RM-40" value="" style="endArrow=classic;html=1;rounded=0;exitX=0.5;exitY=1.013;exitDx=0;exitDy=0;exitPerimeter=0;entryX=0.5;entryY=0;entryDx=0;entryDy=0;" parent="1" source="Bd9IcJq--WjUhIXh83RM-37" target="Bd9IcJq--WjUhIXh83RM-39" edge="1">
          <mxGeometry width="50" height="50" relative="1" as="geometry">
            <mxPoint x="570" y="760" as="sourcePoint" />
            <mxPoint x="620" y="710" as="targetPoint" />
          </mxGeometry>
        </mxCell>
        <mxCell id="Bd9IcJq--WjUhIXh83RM-41" value="διαγραφή απο out of stock και μετάβαση in stock" style="ellipse;shape=umlControl;whiteSpace=wrap;html=1;" parent="1" vertex="1">
          <mxGeometry x="515" y="850" width="100" height="120" as="geometry" />
        </mxCell>
        <mxCell id="Bd9IcJq--WjUhIXh83RM-42" value="" style="endArrow=classic;html=1;rounded=0;entryX=-0.014;entryY=0.55;entryDx=0;entryDy=0;entryPerimeter=0;exitX=1.014;exitY=0.588;exitDx=0;exitDy=0;exitPerimeter=0;" parent="1" source="Bd9IcJq--WjUhIXh83RM-37" target="Bd9IcJq--WjUhIXh83RM-41" edge="1">
          <mxGeometry width="50" height="50" relative="1" as="geometry">
            <mxPoint x="620" y="820" as="sourcePoint" />
            <mxPoint x="670" y="770" as="targetPoint" />
          </mxGeometry>
        </mxCell>
        <mxCell id="Bd9IcJq--WjUhIXh83RM-44" value="ενημέρωση&amp;nbsp;&amp;nbsp;&lt;span style=&quot;font-size:12.0pt;line-height:107%;&lt;br/&gt;font-family:&amp;quot;Arial&amp;quot;,sans-serif;mso-fareast-font-family:Calibri;mso-fareast-theme-font:&lt;br/&gt;minor-latin;mso-ansi-language:EN-US;mso-fareast-language:EN-US;mso-bidi-language:&lt;br/&gt;AR-SA&quot;&gt;Premium&lt;/span&gt;&lt;span style=&quot;font-size:12.0pt;line-height:107%;font-family:&lt;br/&gt;&amp;quot;Arial&amp;quot;,sans-serif;mso-fareast-font-family:Calibri;mso-fareast-theme-font:minor-latin;&lt;br/&gt;mso-ansi-language:EL;mso-fareast-language:EN-US;mso-bidi-language:AR-SA&quot;&gt; &lt;span lang=&quot;EL&quot;&gt;πελάτες που ενδιαφέρονται&lt;/span&gt;&lt;/span&gt;" style="ellipse;shape=umlControl;whiteSpace=wrap;html=1;" parent="1" vertex="1">
          <mxGeometry x="720" y="860" width="140" height="120" as="geometry" />
        </mxCell>
        <mxCell id="Bd9IcJq--WjUhIXh83RM-45" value="" style="endArrow=classic;html=1;rounded=0;exitX=1.014;exitY=0.55;exitDx=0;exitDy=0;exitPerimeter=0;entryX=0.014;entryY=0.463;entryDx=0;entryDy=0;entryPerimeter=0;" parent="1" source="Bd9IcJq--WjUhIXh83RM-41" target="Bd9IcJq--WjUhIXh83RM-44" edge="1">
          <mxGeometry width="50" height="50" relative="1" as="geometry">
            <mxPoint x="1050" y="840" as="sourcePoint" />
            <mxPoint x="1100" y="790" as="targetPoint" />
          </mxGeometry>
        </mxCell>
        <mxCell id="RyjtperPYyfWlRauyCAq-13" style="edgeStyle=orthogonalEdgeStyle;rounded=0;orthogonalLoop=1;jettySize=auto;html=1;fillColor=#f8cecc;strokeColor=#b85450;" parent="1" source="Bd9IcJq--WjUhIXh83RM-46" target="Bd9IcJq--WjUhIXh83RM-48" edge="1">
          <mxGeometry relative="1" as="geometry" />
        </mxCell>
        <mxCell id="Bd9IcJq--WjUhIXh83RM-46" value="Εμφάνισε Κατηγορίες" style="ellipse;shape=umlControl;whiteSpace=wrap;html=1;fillColor=#f8cecc;strokeColor=#b85450;" parent="1" vertex="1">
          <mxGeometry x="630" y="228" width="80" height="90" as="geometry" />
        </mxCell>
        <mxCell id="Bd9IcJq--WjUhIXh83RM-48" value="Κατηγορίες Προϊόντων" style="shape=umlBoundary;whiteSpace=wrap;html=1;fillColor=#f8cecc;strokeColor=#b85450;" parent="1" vertex="1">
          <mxGeometry x="620" y="-9.999999999999986" width="100" height="80" as="geometry" />
        </mxCell>
        <mxCell id="Bd9IcJq--WjUhIXh83RM-49" value="in stock" style="text;html=1;align=center;verticalAlign=middle;resizable=0;points=[];autosize=1;strokeColor=#b85450;fillColor=#f8cecc;" parent="1" vertex="1">
          <mxGeometry x="440" y="290" width="60" height="30" as="geometry" />
        </mxCell>
        <mxCell id="Bd9IcJq--WjUhIXh83RM-52" value="Επιλογή Κατηγορίας" style="text;html=1;align=center;verticalAlign=middle;resizable=0;points=[];autosize=1;strokeColor=#b85450;fillColor=#f8cecc;rotation=-9;" parent="1" vertex="1">
          <mxGeometry x="300" y="40" width="130" height="30" as="geometry" />
        </mxCell>
        <mxCell id="Bd9IcJq--WjUhIXh83RM-53" value="εμφάνισε" style="ellipse;shape=umlControl;whiteSpace=wrap;html=1;fillColor=#f8cecc;strokeColor=#b85450;" parent="1" vertex="1">
          <mxGeometry x="840" y="-22.14" width="70" height="80" as="geometry" />
        </mxCell>
        <mxCell id="Bd9IcJq--WjUhIXh83RM-54" value="προϊόντα κατηγορίας" style="shape=umlBoundary;whiteSpace=wrap;html=1;fillColor=#f8cecc;strokeColor=#b85450;" parent="1" vertex="1">
          <mxGeometry x="620" y="-140" width="100" height="80" as="geometry" />
        </mxCell>
        <mxCell id="Bd9IcJq--WjUhIXh83RM-55" value="" style="endArrow=classic;html=1;rounded=0;exitX=0.98;exitY=0.388;exitDx=0;exitDy=0;exitPerimeter=0;entryX=-0.057;entryY=0.513;entryDx=0;entryDy=0;entryPerimeter=0;fillColor=#f8cecc;strokeColor=#b85450;" parent="1" source="Bd9IcJq--WjUhIXh83RM-48" target="Bd9IcJq--WjUhIXh83RM-53" edge="1">
          <mxGeometry width="50" height="50" relative="1" as="geometry">
            <mxPoint x="1130" y="47.86" as="sourcePoint" />
            <mxPoint x="1180" y="-2.1400000000000006" as="targetPoint" />
          </mxGeometry>
        </mxCell>
        <mxCell id="Bd9IcJq--WjUhIXh83RM-56" value="" style="endArrow=classic;html=1;rounded=0;exitX=0.2;exitY=0.225;exitDx=0;exitDy=0;exitPerimeter=0;entryX=0.96;entryY=0.738;entryDx=0;entryDy=0;entryPerimeter=0;fillColor=#f8cecc;strokeColor=#b85450;" parent="1" source="Bd9IcJq--WjUhIXh83RM-53" target="Bd9IcJq--WjUhIXh83RM-54" edge="1">
          <mxGeometry width="50" height="50" relative="1" as="geometry">
            <mxPoint x="1130" y="247.86" as="sourcePoint" />
            <mxPoint x="1180" y="197.86" as="targetPoint" />
          </mxGeometry>
        </mxCell>
        <mxCell id="Bd9IcJq--WjUhIXh83RM-59" value="εμφάνισε επιλογές" style="ellipse;shape=umlControl;whiteSpace=wrap;html=1;fillColor=#f8cecc;strokeColor=#b85450;" parent="1" vertex="1">
          <mxGeometry x="820" y="-140" width="70" height="80" as="geometry" />
        </mxCell>
        <mxCell id="Bd9IcJq--WjUhIXh83RM-60" value="" style="endArrow=classic;html=1;rounded=0;exitX=1.05;exitY=0.5;exitDx=0;exitDy=0;exitPerimeter=0;entryX=0.029;entryY=0.513;entryDx=0;entryDy=0;entryPerimeter=0;fillColor=#f8cecc;strokeColor=#b85450;" parent="1" source="Bd9IcJq--WjUhIXh83RM-54" target="Bd9IcJq--WjUhIXh83RM-59" edge="1">
          <mxGeometry width="50" height="50" relative="1" as="geometry">
            <mxPoint x="1150" y="247.86" as="sourcePoint" />
            <mxPoint x="1200" y="197.86" as="targetPoint" />
          </mxGeometry>
        </mxCell>
        <mxCell id="Bd9IcJq--WjUhIXh83RM-61" value="Αύξηση μείωση τιμής, Αύξηση&amp;nbsp; αποθεμάτων, &lt;span lang=&quot;EL&quot;&gt;&amp;nbsp;και Αριθμό πωλήσεων&lt;/span&gt;" style="shape=umlBoundary;whiteSpace=wrap;html=1;fillColor=#f8cecc;strokeColor=#b85450;" parent="1" vertex="1">
          <mxGeometry x="610" y="-300" width="120" height="110" as="geometry" />
        </mxCell>
        <mxCell id="Bd9IcJq--WjUhIXh83RM-63" value="επιλογή" style="text;html=1;align=center;verticalAlign=middle;resizable=0;points=[];autosize=1;strokeColor=#b85450;fillColor=#f8cecc;rotation=-35;" parent="1" vertex="1">
          <mxGeometry x="250" y="-70" width="60" height="30" as="geometry" />
        </mxCell>
        <mxCell id="Bd9IcJq--WjUhIXh83RM-64" value="αύξηση ή μείωση τιμής" style="ellipse;shape=umlControl;whiteSpace=wrap;html=1;fillColor=#f8cecc;strokeColor=#b85450;" parent="1" vertex="1">
          <mxGeometry x="840" y="-410" width="70" height="80" as="geometry" />
        </mxCell>
        <mxCell id="Bd9IcJq--WjUhIXh83RM-65" value="αύξηση&amp;nbsp; αποθεμάτων" style="ellipse;shape=umlControl;whiteSpace=wrap;html=1;fillColor=#fff2cc;strokeColor=#d6b656;" parent="1" vertex="1">
          <mxGeometry x="980" y="-340" width="70" height="80" as="geometry" />
        </mxCell>
        <mxCell id="Bd9IcJq--WjUhIXh83RM-67" value="Υπολογισμός αριθμού πωλήσεων" style="ellipse;shape=umlControl;whiteSpace=wrap;html=1;fillColor=#dae8fc;strokeColor=#6c8ebf;" parent="1" vertex="1">
          <mxGeometry x="990" y="-240" width="80" height="100" as="geometry" />
        </mxCell>
        <mxCell id="Bd9IcJq--WjUhIXh83RM-72" value="" style="endArrow=classic;html=1;rounded=0;entryX=0.93;entryY=0.888;entryDx=0;entryDy=0;entryPerimeter=0;fillColor=#f8cecc;strokeColor=#b85450;" parent="1" source="Bd9IcJq--WjUhIXh83RM-59" target="Bd9IcJq--WjUhIXh83RM-61" edge="1">
          <mxGeometry width="50" height="50" relative="1" as="geometry">
            <mxPoint x="1210" y="67.86" as="sourcePoint" />
            <mxPoint x="1260" y="17.86" as="targetPoint" />
          </mxGeometry>
        </mxCell>
        <mxCell id="RyjtperPYyfWlRauyCAq-5" value="" style="endArrow=classic;html=1;rounded=0;" parent="1" source="Bd9IcJq--WjUhIXh83RM-1" target="Bd9IcJq--WjUhIXh83RM-10" edge="1">
          <mxGeometry width="50" height="50" relative="1" as="geometry">
            <mxPoint x="660" y="170" as="sourcePoint" />
            <mxPoint x="710" y="120" as="targetPoint" />
          </mxGeometry>
        </mxCell>
        <mxCell id="RyjtperPYyfWlRauyCAq-6" value="Διαχείριση προϊόντων" style="text;html=1;align=center;verticalAlign=middle;resizable=0;points=[];autosize=1;strokeColor=none;fillColor=none;rotation=0;" parent="1" vertex="1">
          <mxGeometry x="90" y="140" width="140" height="30" as="geometry" />
        </mxCell>
        <mxCell id="RyjtperPYyfWlRauyCAq-9" value="" style="endArrow=classic;html=1;rounded=0;entryX=0.006;entryY=0.482;entryDx=0;entryDy=0;entryPerimeter=0;" parent="1" source="Bd9IcJq--WjUhIXh83RM-1" target="Bd9IcJq--WjUhIXh83RM-15" edge="1">
          <mxGeometry width="50" height="50" relative="1" as="geometry">
            <mxPoint x="660" y="170" as="sourcePoint" />
            <mxPoint x="260" y="340" as="targetPoint" />
          </mxGeometry>
        </mxCell>
        <mxCell id="RyjtperPYyfWlRauyCAq-12" value="" style="endArrow=classic;html=1;rounded=0;entryX=0.024;entryY=0.531;entryDx=0;entryDy=0;entryPerimeter=0;exitX=1;exitY=0.3333333333333333;exitDx=0;exitDy=0;exitPerimeter=0;fillColor=#f8cecc;strokeColor=#b85450;" parent="1" source="Bd9IcJq--WjUhIXh83RM-1" target="Bd9IcJq--WjUhIXh83RM-48" edge="1">
          <mxGeometry width="50" height="50" relative="1" as="geometry">
            <mxPoint x="660" y="170" as="sourcePoint" />
            <mxPoint x="710" y="120" as="targetPoint" />
          </mxGeometry>
        </mxCell>
        <mxCell id="RyjtperPYyfWlRauyCAq-14" value="" style="endArrow=classic;html=1;rounded=0;entryX=-0.017;entryY=0.553;entryDx=0;entryDy=0;entryPerimeter=0;exitX=0.75;exitY=0.1;exitDx=0;exitDy=0;exitPerimeter=0;fillColor=#f8cecc;strokeColor=#b85450;" parent="1" source="Bd9IcJq--WjUhIXh83RM-1" target="Bd9IcJq--WjUhIXh83RM-54" edge="1">
          <mxGeometry width="50" height="50" relative="1" as="geometry">
            <mxPoint x="28" y="28" as="sourcePoint" />
            <mxPoint x="600" y="-100" as="targetPoint" />
          </mxGeometry>
        </mxCell>
        <mxCell id="RyjtperPYyfWlRauyCAq-15" value="Επιλογή Προϊόντων" style="text;html=1;align=center;verticalAlign=middle;resizable=0;points=[];autosize=1;strokeColor=#b85450;fillColor=#f8cecc;rotation=-20;" parent="1" vertex="1">
          <mxGeometry x="220" y="2.86" width="130" height="30" as="geometry" />
        </mxCell>
        <mxCell id="RyjtperPYyfWlRauyCAq-16" value="" style="endArrow=classic;html=1;rounded=0;entryX=-0.009;entryY=0.573;entryDx=0;entryDy=0;entryPerimeter=0;fillColor=#f8cecc;strokeColor=#b85450;" parent="1" target="Bd9IcJq--WjUhIXh83RM-61" edge="1">
          <mxGeometry width="50" height="50" relative="1" as="geometry">
            <mxPoint x="40" y="130" as="sourcePoint" />
            <mxPoint x="625" y="-210" as="targetPoint" />
          </mxGeometry>
        </mxCell>
        <mxCell id="RyjtperPYyfWlRauyCAq-18" value="" style="endArrow=classic;html=1;rounded=0;fillColor=#f8cecc;strokeColor=#b85450;" parent="1" source="Bd9IcJq--WjUhIXh83RM-61" target="Bd9IcJq--WjUhIXh83RM-64" edge="1">
          <mxGeometry width="50" height="50" relative="1" as="geometry">
            <mxPoint x="660" y="-140" as="sourcePoint" />
            <mxPoint x="710" y="-190" as="targetPoint" />
          </mxGeometry>
        </mxCell>
        <mxCell id="RyjtperPYyfWlRauyCAq-19" value="" style="endArrow=classic;html=1;rounded=0;entryX=-0.024;entryY=0.553;entryDx=0;entryDy=0;entryPerimeter=0;exitX=1.03;exitY=0.402;exitDx=0;exitDy=0;exitPerimeter=0;fillColor=#fff2cc;strokeColor=#d6b656;" parent="1" source="Bd9IcJq--WjUhIXh83RM-61" target="Bd9IcJq--WjUhIXh83RM-65" edge="1">
          <mxGeometry width="50" height="50" relative="1" as="geometry">
            <mxPoint x="740" y="-272" as="sourcePoint" />
            <mxPoint x="854" y="-341" as="targetPoint" />
          </mxGeometry>
        </mxCell>
        <mxCell id="RyjtperPYyfWlRauyCAq-20" value="" style="endArrow=classic;html=1;rounded=0;exitX=1;exitY=0.627;exitDx=0;exitDy=0;exitPerimeter=0;fillColor=#dae8fc;strokeColor=#6c8ebf;" parent="1" source="Bd9IcJq--WjUhIXh83RM-61" target="Bd9IcJq--WjUhIXh83RM-67" edge="1">
          <mxGeometry width="50" height="50" relative="1" as="geometry">
            <mxPoint x="660" y="-140" as="sourcePoint" />
            <mxPoint x="710" y="-190" as="targetPoint" />
          </mxGeometry>
        </mxCell>
        <mxCell id="RyjtperPYyfWlRauyCAq-21" value="" style="endArrow=classic;html=1;rounded=0;entryX=-0.011;entryY=0.479;entryDx=0;entryDy=0;entryPerimeter=0;" parent="1" source="Bd9IcJq--WjUhIXh83RM-1" target="Bd9IcJq--WjUhIXh83RM-22" edge="1">
          <mxGeometry width="50" height="50" relative="1" as="geometry">
            <mxPoint x="100" y="300" as="sourcePoint" />
            <mxPoint x="291" y="337" as="targetPoint" />
          </mxGeometry>
        </mxCell>
        <mxCell id="RyjtperPYyfWlRauyCAq-22" value="Επιλογή Προϊόντος" style="text;html=1;align=center;verticalAlign=middle;resizable=0;points=[];autosize=1;strokeColor=none;fillColor=none;rotation=50;" parent="1" vertex="1">
          <mxGeometry x="165" y="410" width="130" height="30" as="geometry" />
        </mxCell>
        <mxCell id="RyjtperPYyfWlRauyCAq-26" value="" style="endArrow=classic;html=1;rounded=0;entryX=-0.019;entryY=0.45;entryDx=0;entryDy=0;entryPerimeter=0;" parent="1" source="Bd9IcJq--WjUhIXh83RM-1" target="Bd9IcJq--WjUhIXh83RM-31" edge="1">
          <mxGeometry width="50" height="50" relative="1" as="geometry">
            <mxPoint x="660" y="500" as="sourcePoint" />
            <mxPoint x="710" y="450" as="targetPoint" />
          </mxGeometry>
        </mxCell>
        <mxCell id="T-DcWj7JUtL2jdLP51T1-2" value="κατηγορίες" style="ellipse;shape=umlEntity;whiteSpace=wrap;html=1;fillColor=#f8cecc;strokeColor=#b85450;" parent="1" vertex="1">
          <mxGeometry x="820" y="210" width="80" height="80" as="geometry" />
        </mxCell>
        <mxCell id="T-DcWj7JUtL2jdLP51T1-3" value="" style="endArrow=classic;html=1;rounded=0;entryX=0;entryY=1;entryDx=0;entryDy=0;fillColor=#f8cecc;strokeColor=#b85450;exitX=0.875;exitY=0.222;exitDx=0;exitDy=0;exitPerimeter=0;" parent="1" source="Bd9IcJq--WjUhIXh83RM-46" target="T-DcWj7JUtL2jdLP51T1-2" edge="1">
          <mxGeometry width="50" height="50" relative="1" as="geometry">
            <mxPoint x="590" y="60" as="sourcePoint" />
            <mxPoint x="640" y="10" as="targetPoint" />
          </mxGeometry>
        </mxCell>
        <mxCell id="T-DcWj7JUtL2jdLP51T1-4" value="προϊόντα" style="ellipse;shape=umlEntity;whiteSpace=wrap;html=1;fillColor=#f8cecc;strokeColor=#b85450;" parent="1" vertex="1">
          <mxGeometry x="1020" y="-22.14" width="80" height="80" as="geometry" />
        </mxCell>
        <mxCell id="T-DcWj7JUtL2jdLP51T1-5" value="" style="endArrow=classic;html=1;rounded=0;exitX=1.029;exitY=0.459;exitDx=0;exitDy=0;exitPerimeter=0;entryX=0;entryY=0.5;entryDx=0;entryDy=0;fillColor=#f8cecc;strokeColor=#b85450;" parent="1" source="Bd9IcJq--WjUhIXh83RM-53" target="T-DcWj7JUtL2jdLP51T1-4" edge="1">
          <mxGeometry width="50" height="50" relative="1" as="geometry">
            <mxPoint x="850" y="-130" as="sourcePoint" />
            <mxPoint x="900" y="-180" as="targetPoint" />
          </mxGeometry>
        </mxCell>
        <mxCell id="T-DcWj7JUtL2jdLP51T1-6" value="προϊόντα" style="ellipse;shape=umlEntity;whiteSpace=wrap;html=1;" parent="1" vertex="1">
          <mxGeometry x="970" y="-500" width="80" height="80" as="geometry" />
        </mxCell>
        <mxCell id="T-DcWj7JUtL2jdLP51T1-7" value="" style="endArrow=classic;html=1;rounded=0;entryX=-0.005;entryY=0.703;entryDx=0;entryDy=0;entryPerimeter=0;exitX=0.88;exitY=0.238;exitDx=0;exitDy=0;exitPerimeter=0;" parent="1" source="Bd9IcJq--WjUhIXh83RM-64" target="T-DcWj7JUtL2jdLP51T1-6" edge="1">
          <mxGeometry width="50" height="50" relative="1" as="geometry">
            <mxPoint x="850" y="-330" as="sourcePoint" />
            <mxPoint x="900" y="-380" as="targetPoint" />
          </mxGeometry>
        </mxCell>
        <mxCell id="T-DcWj7JUtL2jdLP51T1-8" value="" style="endArrow=classic;html=1;rounded=0;entryX=0.5;entryY=1;entryDx=0;entryDy=0;exitX=0.469;exitY=0.083;exitDx=0;exitDy=0;exitPerimeter=0;" parent="1" source="Bd9IcJq--WjUhIXh83RM-65" target="T-DcWj7JUtL2jdLP51T1-6" edge="1">
          <mxGeometry width="50" height="50" relative="1" as="geometry">
            <mxPoint x="850" y="-330" as="sourcePoint" />
            <mxPoint x="900" y="-380" as="targetPoint" />
          </mxGeometry>
        </mxCell>
        <mxCell id="T-DcWj7JUtL2jdLP51T1-9" value="παραγγελίες" style="ellipse;shape=umlEntity;whiteSpace=wrap;html=1;fillColor=#dae8fc;strokeColor=#6c8ebf;" parent="1" vertex="1">
          <mxGeometry x="1170" y="-230" width="80" height="80" as="geometry" />
        </mxCell>
        <mxCell id="T-DcWj7JUtL2jdLP51T1-11" value="" style="endArrow=classic;html=1;rounded=0;exitX=0.985;exitY=0.53;exitDx=0;exitDy=0;exitPerimeter=0;entryX=0;entryY=0.5;entryDx=0;entryDy=0;fillColor=#dae8fc;strokeColor=#6c8ebf;" parent="1" source="Bd9IcJq--WjUhIXh83RM-67" target="T-DcWj7JUtL2jdLP51T1-9" edge="1">
          <mxGeometry width="50" height="50" relative="1" as="geometry">
            <mxPoint x="850" y="-430" as="sourcePoint" />
            <mxPoint x="900" y="-480" as="targetPoint" />
          </mxGeometry>
        </mxCell>
        <mxCell id="T-DcWj7JUtL2jdLP51T1-14" value="&lt;font style=&quot;font-size: 12px;&quot;&gt;Προσθήκη εναλλακτικού προϊόντος για το &lt;span style=&quot;line-height: 107%; font-family: Arial, sans-serif;&quot; lang=&quot;EN-US&quot;&gt;out&lt;/span&gt;&lt;span style=&quot;line-height: 107%; font-family: Arial, sans-serif;&quot; lang=&quot;EN-US&quot;&gt; &lt;/span&gt;&lt;span style=&quot;line-height: 107%; font-family: Arial, sans-serif;&quot; lang=&quot;EN-US&quot;&gt;of&lt;/span&gt;&lt;span style=&quot;line-height: 107%; font-family: Arial, sans-serif;&quot; lang=&quot;EN-US&quot;&gt; &lt;/span&gt;&lt;span style=&quot;line-height: 107%; font-family: Arial, sans-serif;&quot; lang=&quot;EN-US&quot;&gt;stock&lt;/span&gt;&lt;span style=&quot;line-height: 107%; font-family: Arial, sans-serif;&quot;&gt; προϊόν&lt;/span&gt;&lt;/font&gt;" style="ellipse;whiteSpace=wrap;html=1;fillColor=#d5e8d4;strokeColor=#82b366;" parent="1" vertex="1">
          <mxGeometry x="640" y="780" width="120" height="80" as="geometry" />
        </mxCell>
        <mxCell id="T-DcWj7JUtL2jdLP51T1-15" value="" style="endArrow=classic;html=1;rounded=0;exitX=0.982;exitY=0.698;exitDx=0;exitDy=0;exitPerimeter=0;entryX=0;entryY=0.5;entryDx=0;entryDy=0;fillColor=#d5e8d4;strokeColor=#82b366;" parent="1" source="Bd9IcJq--WjUhIXh83RM-31" target="T-DcWj7JUtL2jdLP51T1-14" edge="1">
          <mxGeometry width="50" height="50" relative="1" as="geometry">
            <mxPoint x="370" y="860" as="sourcePoint" />
            <mxPoint x="420" y="810" as="targetPoint" />
          </mxGeometry>
        </mxCell>
        <mxCell id="T-DcWj7JUtL2jdLP51T1-16" value="προσθήκη εναλλακτικού&lt;br&gt;&amp;nbsp;προϊόντος" style="text;html=1;align=center;verticalAlign=middle;resizable=0;points=[];autosize=1;strokeColor=none;fillColor=none;" parent="1" vertex="1">
          <mxGeometry x="480" y="750" width="150" height="40" as="geometry" />
        </mxCell>
        <mxCell id="T-DcWj7JUtL2jdLP51T1-17" value="Εμφάνισε Κατηγορίες" style="ellipse;shape=umlControl;whiteSpace=wrap;html=1;" parent="1" vertex="1">
          <mxGeometry x="450" y="385" width="70" height="80" as="geometry" />
        </mxCell>
        <mxCell id="T-DcWj7JUtL2jdLP51T1-19" value="υπολόγισε out of stock προϊόοντα σε κάθε κατηγορία" style="ellipse;shape=umlControl;whiteSpace=wrap;html=1;" parent="1" vertex="1">
          <mxGeometry x="560" y="310" width="90" height="110" as="geometry" />
        </mxCell>
        <mxCell id="T-DcWj7JUtL2jdLP51T1-20" value="" style="endArrow=classic;html=1;rounded=0;exitX=1.016;exitY=0.427;exitDx=0;exitDy=0;exitPerimeter=0;entryX=0.029;entryY=0.518;entryDx=0;entryDy=0;entryPerimeter=0;" parent="1" source="Bd9IcJq--WjUhIXh83RM-22" target="Bd9IcJq--WjUhIXh83RM-27" edge="1">
          <mxGeometry width="50" height="50" relative="1" as="geometry">
            <mxPoint x="420" y="860" as="sourcePoint" />
            <mxPoint x="470" y="810" as="targetPoint" />
          </mxGeometry>
        </mxCell>
        <mxCell id="T-DcWj7JUtL2jdLP51T1-21" value="" style="endArrow=classic;html=1;rounded=0;exitX=0.062;exitY=0.751;exitDx=0;exitDy=0;exitPerimeter=0;entryX=0.96;entryY=0.358;entryDx=0;entryDy=0;entryPerimeter=0;" parent="1" source="T-DcWj7JUtL2jdLP51T1-19" target="T-DcWj7JUtL2jdLP51T1-17" edge="1">
          <mxGeometry width="50" height="50" relative="1" as="geometry">
            <mxPoint x="420" y="560" as="sourcePoint" />
            <mxPoint x="470" y="510" as="targetPoint" />
          </mxGeometry>
        </mxCell>
        <mxCell id="T-DcWj7JUtL2jdLP51T1-22" value="κατηγορίες" style="shape=umlBoundary;whiteSpace=wrap;html=1;" parent="1" vertex="1">
          <mxGeometry x="280" y="400" width="100" height="80" as="geometry" />
        </mxCell>
        <mxCell id="T-DcWj7JUtL2jdLP51T1-24" value="" style="endArrow=classic;html=1;rounded=0;exitX=0.5;exitY=0.5;exitDx=0;exitDy=0;exitPerimeter=0;entryX=0.28;entryY=0.202;entryDx=0;entryDy=0;entryPerimeter=0;" parent="1" source="Bd9IcJq--WjUhIXh83RM-1" target="T-DcWj7JUtL2jdLP51T1-22" edge="1">
          <mxGeometry width="50" height="50" relative="1" as="geometry">
            <mxPoint x="420" y="470" as="sourcePoint" />
            <mxPoint x="470" y="420" as="targetPoint" />
          </mxGeometry>
        </mxCell>
        <mxCell id="T-DcWj7JUtL2jdLP51T1-25" value="" style="endArrow=classic;html=1;rounded=0;exitX=0;exitY=0.572;exitDx=0;exitDy=0;exitPerimeter=0;entryX=1;entryY=0.602;entryDx=0;entryDy=0;entryPerimeter=0;" parent="1" source="T-DcWj7JUtL2jdLP51T1-17" target="T-DcWj7JUtL2jdLP51T1-22" edge="1">
          <mxGeometry width="50" height="50" relative="1" as="geometry">
            <mxPoint x="420" y="470" as="sourcePoint" />
            <mxPoint x="470" y="420" as="targetPoint" />
          </mxGeometry>
        </mxCell>
        <mxCell id="T-DcWj7JUtL2jdLP51T1-26" value="" style="endArrow=classic;html=1;rounded=0;exitX=0.856;exitY=0.942;exitDx=0;exitDy=0;exitPerimeter=0;entryX=0.006;entryY=0.357;entryDx=0;entryDy=0;entryPerimeter=0;" parent="1" source="T-DcWj7JUtL2jdLP51T1-22" target="Bd9IcJq--WjUhIXh83RM-19" edge="1">
          <mxGeometry width="50" height="50" relative="1" as="geometry">
            <mxPoint x="420" y="470" as="sourcePoint" />
            <mxPoint x="470" y="420" as="targetPoint" />
          </mxGeometry>
        </mxCell>
        <mxCell id="T-DcWj7JUtL2jdLP51T1-27" value="προϊόντα" style="ellipse;shape=umlEntity;whiteSpace=wrap;html=1;" parent="1" vertex="1">
          <mxGeometry x="620" y="490" width="80" height="80" as="geometry" />
        </mxCell>
        <mxCell id="T-DcWj7JUtL2jdLP51T1-28" value="κατηγορίες" style="ellipse;shape=umlEntity;whiteSpace=wrap;html=1;" parent="1" vertex="1">
          <mxGeometry x="660" y="390" width="80" height="80" as="geometry" />
        </mxCell>
        <mxCell id="T-DcWj7JUtL2jdLP51T1-29" value="" style="endArrow=classic;html=1;rounded=0;entryX=-0.01;entryY=0.667;entryDx=0;entryDy=0;entryPerimeter=0;exitX=1.006;exitY=0.737;exitDx=0;exitDy=0;exitPerimeter=0;" parent="1" source="T-DcWj7JUtL2jdLP51T1-17" target="T-DcWj7JUtL2jdLP51T1-28" edge="1">
          <mxGeometry width="50" height="50" relative="1" as="geometry">
            <mxPoint x="510" y="460" as="sourcePoint" />
            <mxPoint x="470" y="420" as="targetPoint" />
          </mxGeometry>
        </mxCell>
        <mxCell id="T-DcWj7JUtL2jdLP51T1-30" value="" style="endArrow=classic;html=1;rounded=0;exitX=1.023;exitY=0.448;exitDx=0;exitDy=0;exitPerimeter=0;" parent="1" source="Bd9IcJq--WjUhIXh83RM-19" edge="1">
          <mxGeometry width="50" height="50" relative="1" as="geometry">
            <mxPoint x="420" y="470" as="sourcePoint" />
            <mxPoint x="620" y="526" as="targetPoint" />
          </mxGeometry>
        </mxCell>
        <mxCell id="HyRVeQMPiO-KkybQ4vZZ-1" value="premium" style="ellipse;shape=umlEntity;whiteSpace=wrap;html=1;" parent="1" vertex="1">
          <mxGeometry x="700" y="560" width="80" height="80" as="geometry" />
        </mxCell>
        <mxCell id="HyRVeQMPiO-KkybQ4vZZ-2" value="" style="endArrow=classic;html=1;rounded=0;entryX=0.025;entryY=0.648;entryDx=0;entryDy=0;entryPerimeter=0;exitX=0.944;exitY=0.322;exitDx=0;exitDy=0;exitPerimeter=0;" parent="1" source="Bd9IcJq--WjUhIXh83RM-27" target="HyRVeQMPiO-KkybQ4vZZ-1" edge="1">
          <mxGeometry width="50" height="50" relative="1" as="geometry">
            <mxPoint x="620" y="600" as="sourcePoint" />
            <mxPoint x="670" y="550" as="targetPoint" />
          </mxGeometry>
        </mxCell>
      </root>
    </mxGraphModel>
  </diagram>
</mxfile>
